<svg xmlns="http://www.w3.org/2000/svg" viewBox="0 0 660 660">
  <defs>
    <pattern id="grass" width="36" height="36" patternUnits="userSpaceOnUse">
      <path d="M7 13l2-4m18 18 3-5M13 33l2-3" stroke="#88a16a" stroke-width="2" opacity=".35"/>
    </pattern>
    <g id="tree"><circle r="8" fill="#284c37"/><circle cx="-2" cy="-2" r="5" fill="#3d6947"/></g>
    <pattern id="trees" width="48" height="48" patternUnits="userSpaceOnUse">
      <use href="#tree" x="12" y="13"/><use href="#tree" x="37" y="33"/>
    </pattern>
  </defs>
  <rect width="660" height="660" fill="#34443b"/>
  <rect x="30" y="30" width="600" height="600" rx="8" fill="#56724a"/>
  <rect x="30" y="30" width="600" height="600" rx="8" fill="url(#grass)"/>
  <rect x="230" y="230" width="200" height="200" fill="#638055"/>
  <rect x="230" y="230" width="200" height="200" fill="url(#trees)" opacity=".75"/>
  <circle cx="330" cy="344" r="17" fill="#b2a078" stroke="#e0c99a" stroke-width="2"/>
  <path d="M30 230h600M30 430h600M230 30v600M430 30v600" stroke="#f0ead2" stroke-opacity=".16" stroke-width="2"/>
  <text x="330" y="21" text-anchor="middle" fill="#f1eed7" font-family="sans-serif" font-size="20">N</text>
</svg>
